<svg xmlns="http://www.w3.org/2000/svg" viewBox="0 0 48 48" role="img" aria-hidden="true">
  <rect width="48" height="48" fill="#fff" rx="4"/>
  <path fill="#5c3d1e" d="M24 6c-2 0-3.5 1.5-3.5 3.5S22 13 24 13s3.5-1.5 3.5-3.5S26 6 24 6zm-8 8c-1.5 2-2 5-1 8l3 9c.5 1.5 2 2.5 3.5 2h7c1.5 0 3-1 3.5-2.5l2.5-8.5c.5-2 .5-4-1-6l-2-2.5c-.5-.5-1.5-.5-2 0l-1 1.5-1-1.5c-.5-.5-1.5-.5-2 0L18 12.5c-.5.5-1.5.5-2 0l-2-1.5z"/>
  <ellipse cx="24" cy="38" rx="10" ry="3" fill="#c9a227"/>
  <path stroke="#5c3d1e" stroke-width="1.5" fill="none" d="M16 22c4 6 12 6 16 0"/>
</svg>
